<svg width="140" height="41" viewBox="0 0 140 41" fill="none" xmlns="http://www.w3.org/2000/svg">
<g clip-path="url(#clip0_3_687)">
<g clip-path="url(#clip1_3_687)">
<path d="M135.019 40.9164H4.90415C2.19665 40.9101 0.00399115 38.7065 0 35.9879V4.18484C0.00400163 1.46733 2.19783 -0.734157 4.90415 -0.73645H135.019C137.722 -0.73645 140 1.47115 140 4.18484V35.9879C140 38.7005 137.722 40.9164 135.019 40.9164Z" fill="black"/>
<path fill-rule="evenodd" clip-rule="evenodd" d="M29.4582 5.63635C29.6314 7.21077 29.0075 8.76224 28.0956 9.90263C27.144 11.0253 25.6218 11.8839 24.1392 11.7734C23.9452 10.2584 24.6963 8.64748 25.5373 7.66464C26.4878 6.54929 28.1384 5.69478 29.4582 5.63635ZM34.3117 14.7186C34.1462 14.8174 31.4043 16.4539 31.4344 19.7915C31.4687 23.822 34.9598 25.1544 35.0026 25.169C34.9817 25.2628 34.4558 27.0918 33.1464 28.949C32.053 30.584 30.9075 32.1824 29.0878 32.2116C28.2228 32.2315 27.6386 31.9827 27.03 31.7235C26.3951 31.4531 25.7335 31.1714 24.6984 31.1714C23.6011 31.1714 22.9101 31.4622 22.2438 31.7426C21.6676 31.9851 21.1098 32.2199 20.3237 32.2523C18.5907 32.3159 17.2666 30.5068 16.1335 28.8864C13.8684 25.578 12.1052 19.5631 14.4694 15.47C15.6151 13.4625 17.7038 12.1698 19.9366 12.1354C20.9198 12.1153 21.8628 12.4942 22.6895 12.8264C23.3217 13.0804 23.8858 13.307 24.3478 13.307C24.7537 13.307 25.302 13.0894 25.9411 12.8358C26.9482 12.4362 28.1807 11.947 29.4363 12.0791C30.2949 12.1041 32.7385 12.4181 34.315 14.7166L34.3117 14.7186Z" fill="white"/>
<path fill-rule="evenodd" clip-rule="evenodd" d="M90.6224 31.0098C91.4457 30.2679 91.8557 29.307 91.8557 28.1259C91.8557 27.1661 91.575 26.3617 91.0126 25.719C90.4482 25.0742 89.5707 24.5117 88.3761 24.0308C87.3995 23.6458 86.7265 23.289 86.3561 22.9592C85.9305 22.6024 85.7186 22.1486 85.7186 21.5997C85.7121 21.1197 85.9152 20.6607 86.2748 20.3425C86.713 19.9586 87.3243 19.7656 88.1069 19.7656C89.097 19.7656 89.9818 19.9784 90.7643 20.4041L91.3205 18.5908C90.4827 18.1515 89.433 17.9314 88.1695 17.9314C86.7527 17.9314 85.6196 18.2955 84.7702 19.0248C83.9178 19.753 83.4922 20.6889 83.4922 21.8303C83.4922 23.577 84.7066 24.9051 87.1376 25.8118C88.0307 26.1426 88.6703 26.5004 89.0532 26.8854C89.4382 27.2704 89.6302 27.7452 89.6302 28.3085C89.6302 28.9408 89.3975 29.4478 88.9311 29.8256C88.4627 30.2033 87.8106 30.3931 86.9727 30.3931C85.8053 30.3931 84.7338 30.0968 83.7571 29.5063L83.2418 31.3604C84.1484 31.9373 85.3462 32.2253 86.8402 32.2253C88.4585 32.2253 89.7179 31.8204 90.6224 31.0098ZM55.9706 32.0198H53.6011L52.3033 27.9413H47.7918L46.5554 32.0198H44.2485L48.7182 18.1348H51.479L55.9706 32.0198ZM51.912 26.2302L50.7382 22.6045C50.614 22.2341 50.3813 21.3619 50.0381 19.9888H49.9964C49.7883 20.8636 49.5684 21.7356 49.337 22.6045L48.184 26.2302H51.912ZM66.0848 30.9273C67.0051 29.9393 67.4652 28.5934 67.4652 26.8906C67.4652 25.3663 67.0709 24.1372 66.28 23.2023C65.4912 22.2686 64.5053 21.8022 63.3242 21.8022C61.8133 21.8022 60.6877 22.399 59.9458 23.5947H59.904L59.7799 22.0077H57.8236C57.8778 23.1345 57.9061 24.2332 57.9061 25.3037V36.0992H60.1304V30.8252H60.1722C60.7492 31.7725 61.6965 32.2461 63.0154 32.2461C64.2371 32.2461 65.2606 31.8069 66.0848 30.9273ZM65.199 26.972C65.199 25.9975 64.98 25.1942 64.5396 24.5618C64.0587 23.9025 63.4128 23.5728 62.6032 23.5728C62.0543 23.5728 61.5557 23.7564 61.1102 24.1185C60.6636 24.4836 60.3714 24.9604 60.2348 25.551C60.166 25.8265 60.1315 26.0517 60.1315 26.2291V27.8985C60.1315 28.6268 60.3548 29.2413 60.8013 29.7431C61.2479 30.245 61.828 30.4954 62.5417 30.4954C63.3795 30.4954 64.0316 30.172 64.498 29.5272C64.9653 28.8814 65.199 28.03 65.199 26.972ZM77.5993 30.9273C78.5205 29.9393 78.9807 28.5934 78.9807 26.8906C78.9807 25.3663 78.5852 24.1372 77.7975 23.2023C77.0067 22.2686 76.0207 21.8022 74.8406 21.8022C73.3289 21.8022 72.2031 22.399 71.4623 23.5947H71.4206L71.2964 22.0077H69.3401C69.3944 23.1345 69.4225 24.2332 69.4225 25.3037V36.0992H71.647V30.8252H71.6887C72.2646 31.7725 73.212 32.2461 74.5308 32.2461C75.7526 32.2461 76.7761 31.8069 77.5993 30.9273ZM76.7145 26.972C76.7145 25.9975 76.4944 25.1942 76.0541 24.5618C75.5731 23.9025 74.9294 23.5728 74.1186 23.5728C73.5718 23.5726 73.0426 23.7659 72.6246 24.1185C72.1781 24.4836 71.887 24.9604 71.7503 25.551C71.6824 25.8265 71.647 26.0517 71.647 26.2291V27.8985C71.647 28.6268 71.8703 29.2413 72.3147 29.7431C72.7613 30.244 73.3413 30.4954 74.0571 30.4954C74.8949 30.4954 75.547 30.172 76.0134 29.5272C76.4808 28.8814 76.7145 28.03 76.7145 26.972ZM99.2102 23.6771H96.7584V28.5381C96.7584 29.7745 97.1903 30.3921 98.0563 30.3921C98.4539 30.3921 98.7835 30.3577 99.0443 30.2889L99.1059 31.978C98.6677 32.1419 98.0907 32.2242 97.376 32.2242C96.4976 32.2242 95.811 31.9562 95.3154 31.4209C94.8219 30.8846 94.5736 29.9852 94.5736 28.7217V23.675H93.1129V22.0056H94.5736V20.1724L96.7584 19.5131V22.0056H99.2102V23.6771ZM108.954 30.7218C109.833 29.7337 110.273 28.4703 110.273 26.9313C110.273 25.4341 109.847 24.2123 108.994 23.266C108.102 22.2905 106.92 21.8033 105.451 21.8033C103.926 21.8033 102.714 22.2978 101.816 23.2869C100.915 24.2749 100.466 25.5458 100.466 27.0972C100.466 28.5798 100.903 29.81 101.775 30.7844C102.647 31.7589 103.817 32.2461 105.286 32.2461C106.81 32.2461 108.033 31.7391 108.954 30.7218ZM107.965 27.0033C107.965 26.08 107.768 25.288 107.368 24.6276C106.902 23.8284 106.235 23.4298 105.371 23.4298C104.477 23.4298 103.798 23.8294 103.332 24.6276C102.932 25.289 102.735 26.0935 102.735 27.0451C102.735 27.9685 102.932 28.7603 103.332 29.4197C103.813 30.2189 104.484 30.6175 105.351 30.6175C106.201 30.6175 106.867 30.2106 107.348 29.3989C107.758 28.7259 107.965 27.9257 107.965 27.0033ZM116.803 23.9025C117.038 23.9016 117.273 23.9222 117.503 23.964V21.8429C117.338 21.8168 117.152 21.8022 116.947 21.8022C116.368 21.803 115.803 21.9912 115.339 22.3385C114.832 22.7361 114.462 23.266 114.227 23.9244H114.166L114.084 22.0088H112.147C112.202 22.9561 112.23 24.0068 112.23 25.1607L112.209 32.0198H114.433V26.7664C114.433 25.9704 114.618 25.311 114.989 24.7893C115.415 24.1977 116.019 23.9025 116.803 23.9025ZM127.452 26.5401C127.458 26.8782 127.43 27.2162 127.37 27.5489H120.697C120.723 28.5381 121.046 29.2945 121.666 29.8162C122.228 30.2825 122.955 30.5162 123.848 30.5162C124.836 30.5162 125.737 30.3588 126.548 30.0426L126.897 31.5867C125.949 31.9999 124.831 32.2055 123.54 32.2055C121.987 32.2055 120.769 31.7485 119.882 30.8356C118.998 29.9226 118.555 28.6967 118.555 27.1588C118.555 25.6491 118.966 24.3918 119.791 23.3892C120.656 22.3187 121.823 21.7835 123.291 21.7835C124.735 21.7835 125.828 22.3187 126.569 23.3892C127.157 24.2395 127.452 25.2912 127.452 26.5401ZM124.898 24.253C125.2 24.734 125.345 25.3037 125.33 25.9631L120.697 25.9621C120.764 25.2902 120.985 24.7132 121.356 24.2322C121.807 23.6271 122.399 23.3254 123.126 23.3254C123.922 23.3254 124.513 23.6344 124.898 24.253Z" fill="white"/>
<path fill-rule="evenodd" clip-rule="evenodd" d="M45.3067 6.73822C45.5435 6.59632 45.8107 6.47738 46.1111 6.37931C46.4539 6.27498 46.8109 6.22533 47.1691 6.23219C47.8233 6.23219 48.3386 6.38765 48.7164 6.69752C49.0941 7.0074 49.2829 7.42579 49.2829 7.95268C49.2829 8.37107 49.1567 8.72163 48.9042 9.00542C48.6517 9.28921 48.3282 9.47806 47.937 9.57197V9.60222C48.1529 9.63664 48.3575 9.69507 48.5495 9.77958C48.7425 9.8641 48.9115 9.97679 49.0554 10.1187C49.3609 10.4125 49.5312 10.8196 49.526 11.2434C49.526 11.6211 49.4499 11.9383 49.2975 12.1949C49.1452 12.4516 48.947 12.6603 48.7007 12.8231C48.4555 12.9847 48.1801 13.1016 47.8765 13.1715C47.5728 13.2415 47.2692 13.2779 46.9656 13.2779C46.6412 13.2779 46.3208 13.2436 46.0037 13.1768C45.6865 13.1099 45.3933 12.9984 45.123 12.8429L45.3964 12.003C45.5717 12.0906 45.7982 12.1752 46.0746 12.2565C46.3511 12.3378 46.6308 12.3775 46.9145 12.3775C47.3798 12.3775 47.7398 12.2732 47.9922 12.0645C48.2432 11.8593 48.3837 11.5485 48.3721 11.2247C48.3804 11.0198 48.3273 10.817 48.2197 10.6424C48.1193 10.492 47.9834 10.3685 47.8243 10.2825C47.6552 10.1923 47.4722 10.131 47.2829 10.1009C47.0873 10.0675 46.8895 10.0504 46.6913 10.0498H46.2353V9.21826H46.6913C46.8999 9.21826 47.0939 9.19219 47.2734 9.13688C47.4518 9.08367 47.6073 9.00751 47.7387 8.90943C47.8702 8.81136 47.9735 8.6945 48.0475 8.55991C48.1223 8.41969 48.1604 8.26284 48.1582 8.10397C48.1582 7.80035 48.0496 7.56247 47.8337 7.39032C47.6177 7.21816 47.3276 7.13156 46.9635 7.13156C46.7142 7.13156 46.4638 7.17225 46.2145 7.2526C45.9861 7.32563 45.7627 7.41346 45.5456 7.51552L45.3067 6.73822ZM53.9988 13.1652L53.9185 12.5987H53.8883C53.5586 13.0504 53.0797 13.2769 52.4515 13.2769C52.2283 13.2769 52.0269 13.2394 51.8443 13.1652C51.6617 13.0912 51.5032 12.9899 51.3686 12.8616C51.2333 12.7332 51.1264 12.5779 51.0545 12.4058C50.9792 12.2228 50.9416 12.0266 50.9439 11.8287C50.9439 11.2153 51.1933 10.7541 51.6931 10.4473C52.1928 10.1406 52.9002 9.98721 53.8183 9.98721V9.89644C53.8183 9.24852 53.4783 8.92509 52.7979 8.92509C52.3128 8.92509 51.885 9.04715 51.5157 9.28921L51.2935 8.57138C51.7453 8.28864 52.3076 8.14674 52.9805 8.14674C54.267 8.14674 54.9108 8.82492 54.9108 10.1813V11.9926C54.9108 12.4985 54.9347 12.8899 54.9817 13.1663L53.9988 13.1652ZM52.4839 10.9492C52.7823 10.7937 53.2373 10.7165 53.8476 10.7165V11.475C53.8486 11.6133 53.818 11.7501 53.7578 11.8747C53.7001 11.9955 53.6193 12.104 53.5199 12.1939C53.3177 12.3773 53.0542 12.4784 52.7813 12.4777C52.5852 12.4848 52.3938 12.416 52.2471 12.2858C52.1063 12.1573 52.0363 11.9654 52.0363 11.7088C52.0363 11.3582 52.1855 11.1047 52.4839 10.9492ZM60.1838 8.24691V9.14732H58.1389V13.1652H57.0465V8.24691H60.1838ZM66.276 11.7181C66.3835 11.3947 66.4378 11.0369 66.4378 10.6456C66.4378 10.2741 66.3856 9.93505 66.2812 9.62726C66.1768 9.31947 66.034 9.05655 65.8514 8.83744C65.6688 8.61834 65.4549 8.44828 65.2086 8.3262C64.9624 8.20517 64.6932 8.14466 64.4042 8.14466C63.6614 8.14466 63.1084 8.43888 62.7443 9.02525H62.7234L62.6618 8.24587H61.7009C61.725 8.78565 61.7382 9.32587 61.7406 9.86619V15.1695H62.834V12.579H62.8548C63.1386 13.0442 63.604 13.2769 64.2519 13.2769C64.8595 13.2834 65.4375 13.0154 65.8252 12.5476C66.0269 12.3023 66.18 12.0208 66.276 11.7181ZM65.3255 10.6863C65.3255 10.4432 65.2962 10.2188 65.2388 10.0133C65.1816 9.80776 65.097 9.63248 64.9864 9.48745C64.8758 9.34243 64.7402 9.22766 64.5815 9.14314C64.4175 9.05747 64.2346 9.01408 64.0494 9.0169C63.8951 9.0169 63.7427 9.05133 63.5936 9.1181C63.4443 9.18487 63.3149 9.2767 63.2043 9.39146C63.0927 9.50624 63.0041 9.645 62.9363 9.80672C62.8685 9.96843 62.834 10.1406 62.834 10.3232V11.1432C62.834 11.3247 62.8622 11.4938 62.9205 11.6493C62.9779 11.8047 63.0583 11.9394 63.1627 12.0541C63.2669 12.1689 63.3921 12.2586 63.5372 12.3222C63.6822 12.3869 63.8419 12.4182 64.0171 12.4182C64.4293 12.4182 64.7495 12.2617 64.9791 11.9477C65.2087 11.6337 65.3255 11.2122 65.3255 10.6863ZM72.3093 8.24795L71.0639 11.6576C70.7676 12.4673 70.4787 13.1298 70.199 13.6462C69.9183 14.1627 69.6513 14.5383 69.3945 14.7751C69.0169 15.1121 68.6152 15.3188 68.1895 15.3918L67.9266 14.4715C68.2093 14.3975 68.4796 14.2525 68.7362 14.0365C68.9919 13.8204 69.1974 13.5513 69.3539 13.2268C69.3946 13.1586 69.422 13.0832 69.4342 13.0046C69.4244 12.9247 69.404 12.8465 69.3737 12.772L67.5917 8.24795H68.7957L69.7274 10.9909C69.7754 11.1193 69.8224 11.2642 69.8693 11.426C69.9173 11.5877 69.9674 11.7672 70.0216 11.9623H70.0425C70.0837 11.8268 70.1206 11.69 70.1531 11.5522C70.1938 11.3873 70.2481 11.1964 70.3148 10.9805L71.1453 8.24795H72.3093ZM74.2023 10.2908H74.7074C75.0777 10.2908 75.3657 10.2241 75.567 10.0884C75.7685 9.95279 75.8706 9.78794 75.8706 9.59179C75.8746 9.3961 75.7766 9.21242 75.6119 9.10662C75.4408 8.9856 75.2019 8.92405 74.8983 8.92405C74.7022 8.92405 74.5049 8.95638 74.3077 9.02003C74.1165 9.08132 73.9317 9.16098 73.7558 9.25792L73.473 8.55052C73.7375 8.40267 74.0228 8.2954 74.3192 8.2323C74.5969 8.17491 74.8798 8.14589 75.1632 8.1457C75.3876 8.1457 75.6119 8.16761 75.8373 8.21143C76.0615 8.25525 76.263 8.32933 76.4383 8.43366C76.6136 8.538 76.7585 8.67468 76.8681 8.8437C76.9798 9.01272 77.0351 9.2214 77.0351 9.4718C77.0351 9.62726 77.0047 9.76394 76.9432 9.88184C76.8829 10.0004 76.8008 10.1066 76.7011 10.1948C76.6007 10.286 76.4866 10.361 76.3632 10.4171C76.2419 10.4733 76.1149 10.516 75.9844 10.5444V10.5746C76.1451 10.5955 76.3027 10.6362 76.4549 10.6967C76.6063 10.7572 76.7419 10.8365 76.865 10.9346C76.985 11.0327 77.0831 11.1505 77.1582 11.2883C77.2312 11.427 77.2677 11.5836 77.2677 11.7589C77.2677 12.0489 77.1989 12.292 77.0559 12.4871C76.9145 12.6831 76.7286 12.8425 76.5134 12.9524C76.2858 13.0701 76.0422 13.1538 75.7903 13.2007C75.2387 13.3083 74.6709 13.3015 74.122 13.181C73.8413 13.1226 73.5712 13.022 73.3207 12.8826L73.6055 12.1637C73.7808 12.2586 73.9801 12.3378 74.2065 12.4016C74.4329 12.4652 74.6635 12.4975 74.8993 12.4975C75.2697 12.4975 75.5556 12.4255 75.7548 12.2804C75.9521 12.1355 76.0522 11.955 76.0522 11.739C76.0522 11.5971 76.0199 11.4782 75.9521 11.3801C75.8842 11.2821 75.7893 11.2027 75.6693 11.1422C75.5351 11.0776 75.3914 11.0349 75.2436 11.0159C75.0694 10.9913 74.8936 10.9794 74.7178 10.9805H74.2023V10.2908ZM80.0409 9.98721V8.24691H78.9986V13.1642H80.4145C80.643 12.7396 80.861 12.3243 81.0666 11.9195C81.2731 11.5147 81.4808 11.1099 81.6905 10.705C81.8042 10.4682 81.919 10.2387 82.0327 10.0164C82.163 9.76022 82.278 9.49647 82.377 9.22661H82.4282C82.4072 9.59805 82.3895 9.96531 82.3729 10.3305C82.3571 10.6946 82.3467 11.0587 82.3467 11.4229V13.1631H83.3797V8.24481H81.9639L80.7493 10.5725C80.621 10.8292 80.4948 11.0806 80.3686 11.3268L79.9899 12.0812L79.9689 12.0614C79.9899 11.7108 80.0055 11.3769 80.0201 11.0598C80.0347 10.7437 80.0409 10.3858 80.0409 9.98721ZM89.1495 8.24691V9.14732H87.6522V13.1652H86.5775V9.14732H85.0897V8.24691H89.1495ZM94.7146 10.7416C94.7209 10.657 94.725 10.5673 94.725 10.4734C94.725 10.1228 94.6781 9.80358 94.5821 9.5177C94.4882 9.23183 94.3516 8.98456 94.1721 8.77901C93.9947 8.57243 93.7787 8.41384 93.5262 8.30324C93.2589 8.18929 92.9708 8.13242 92.6801 8.13631C92.3295 8.13631 92.0093 8.20413 91.7223 8.33872C91.4375 8.47436 91.1923 8.65903 90.9888 8.89587C90.7875 9.13167 90.6299 9.41024 90.5183 9.73055C90.4088 10.0509 90.3535 10.4004 90.3535 10.7781C90.3535 11.1558 90.4088 11.4959 90.5183 11.7995C90.6225 12.09 90.7863 12.3555 90.9993 12.579C91.2165 12.7998 91.4792 12.9707 91.7693 13.0797C92.0729 13.1976 92.4171 13.2571 92.8001 13.2571C93.4355 13.2571 93.9843 13.1559 94.4507 12.9535L94.2796 12.1939C93.8747 12.3494 93.4324 12.4266 92.9535 12.4266C92.4955 12.4266 92.1251 12.2993 91.8454 12.0468C91.5658 11.7943 91.4198 11.4343 91.4051 10.969H94.6844C94.6992 10.8939 94.7093 10.8179 94.7146 10.7416ZM93.6818 10.1907C93.6818 9.80568 93.5899 9.49371 93.4042 9.25478C93.2185 9.01585 92.9503 8.89483 92.5998 8.89483C92.2815 8.89483 92.0134 9.01586 91.7912 9.25896C91.5689 9.50206 91.4406 9.81193 91.4061 10.1907H93.6818ZM99.8772 8.20622C99.5736 8.22708 99.3253 8.25421 99.129 8.2876V13.1652C99.3043 13.1789 99.5203 13.1924 99.7811 13.206C100.04 13.2205 100.305 13.2268 100.576 13.2268C100.851 13.2247 101.126 13.2112 101.399 13.1862C101.699 13.1606 101.993 13.0957 102.276 12.9931C102.553 12.8919 102.785 12.7396 102.975 12.5372C103.162 12.3347 103.258 12.0614 103.258 11.7171C103.258 11.3728 103.146 11.1036 102.924 10.9074C102.701 10.7113 102.41 10.583 102.054 10.5225L102.043 10.4922C102.172 10.4661 102.295 10.4233 102.413 10.366C102.528 10.3108 102.634 10.2375 102.727 10.1489C102.921 9.96515 103.03 9.70816 103.026 9.44049C103.026 9.15045 102.947 8.92195 102.791 8.75293C102.636 8.5839 102.445 8.45766 102.214 8.37315C101.987 8.28864 101.744 8.23439 101.491 8.21143C101.239 8.18848 101.01 8.17596 100.809 8.17596C100.491 8.17596 100.181 8.18534 99.8772 8.20622ZM100.181 10.2512H100.737C100.906 10.2512 101.067 10.2397 101.218 10.2157C101.37 10.1928 101.503 10.1552 101.617 10.1051C101.723 10.0615 101.815 9.99183 101.887 9.9027C101.952 9.81332 101.986 9.70463 101.983 9.59387C101.994 9.38975 101.884 9.19805 101.703 9.1035C101.517 8.99916 101.226 8.94699 100.829 8.94699C100.715 8.94699 100.615 8.95012 100.529 8.95742L100.181 8.98768V10.2512ZM100.519 12.4568C100.429 12.4495 100.315 12.4401 100.181 12.4266V10.9585H100.758C101.184 10.9585 101.52 11.0118 101.771 11.1193C102.019 11.2267 102.145 11.4208 102.145 11.7025C102.152 11.8412 102.11 11.9779 102.027 12.0895C101.946 12.1912 101.84 12.2708 101.72 12.3212C101.584 12.3804 101.441 12.4194 101.294 12.437C101.037 12.4681 100.777 12.4747 100.519 12.4568Z" fill="white"/>
</g>
</g>
<defs>
<clipPath id="clip0_3_687">
<rect width="140" height="40" fill="white" transform="translate(0 0.0899658)"/>
</clipPath>
<clipPath id="clip1_3_687">
<rect width="140" height="41.6529" fill="white" transform="translate(0 -0.73645)"/>
</clipPath>
</defs>
</svg>
