<svg width="140" height="41" viewBox="0 0 140 41" fill="none" xmlns="http://www.w3.org/2000/svg">
<g clip-path="url(#clip0_3_694)">
<g clip-path="url(#clip1_3_694)">
<path d="M135.019 40.9164H4.90415C2.19665 40.9101 0.00399115 38.7065 0 35.9879V4.18484C0.00400163 1.46733 2.19783 -0.734157 4.90415 -0.73645H135.019C137.722 -0.73645 140 1.47115 140 4.18484V35.9879C140 38.7005 137.722 40.9164 135.019 40.9164Z" fill="black"/>
<path d="M70.8105 22.5417C69.9549 22.5457 69.1195 22.8032 68.41 23.2815C67.7006 23.7598 67.1487 24.4376 66.824 25.2292C66.4993 26.021 66.4165 26.8911 66.5859 27.7298C66.7553 28.5685 67.1694 29.3383 67.7758 29.9419C68.3823 30.5455 69.154 30.956 69.9934 31.1215C70.833 31.287 71.7027 31.1999 72.4928 30.8716C73.2831 30.5432 73.9582 29.9882 74.4332 29.2764C74.9081 28.5647 75.1616 27.7282 75.1616 26.8724C75.17 26.2997 75.0629 25.7312 74.8469 25.2007C74.631 24.6702 74.3104 24.1885 73.9045 23.7845C73.4985 23.3803 73.0154 23.0621 72.4838 22.8485C71.9523 22.6351 71.3833 22.5307 70.8105 22.5417ZM70.8105 29.5015C70.2843 29.5383 69.7591 29.4159 69.3034 29.1504C68.8476 28.8847 68.4822 28.4882 68.2549 28.0122C68.0275 27.5362 67.9485 27.0028 68.0283 26.4814C68.1081 25.9599 68.3429 25.4745 68.7022 25.0883C69.0615 24.702 69.5287 24.4329 70.043 24.3156C70.5574 24.1984 71.095 24.2386 71.5862 24.431C72.0774 24.6235 72.4992 24.9592 72.7971 25.3947C73.095 25.8301 73.2549 26.345 73.2561 26.8724C73.2726 27.2067 73.2219 27.5409 73.1071 27.8552C72.9923 28.1696 72.8158 28.4578 72.5878 28.7029C72.3599 28.9478 72.0852 29.1447 71.78 29.2819C71.4747 29.4191 71.1451 29.4938 70.8105 29.5015ZM61.3236 22.5417C60.4675 22.5438 59.6312 22.7995 58.9204 23.2765C58.2095 23.7537 57.6561 24.4308 57.3298 25.2223C57.0036 26.0137 56.9193 26.8842 57.0875 27.7237C57.2558 28.563 57.669 29.3338 58.2751 29.9384C58.8811 30.543 59.6529 30.9545 60.4926 31.1208C61.3325 31.2871 62.2027 31.2006 62.9934 30.8726C63.7843 30.5445 64.46 29.9895 64.9354 29.2774C65.4108 28.5655 65.6645 27.7286 65.6645 26.8724C65.6729 26.2997 65.5658 25.7312 65.3498 25.2007C65.1339 24.6702 64.8133 24.1885 64.4074 23.7845C64.0014 23.3803 63.5183 23.0621 62.9867 22.8485C62.4552 22.6351 61.8862 22.5307 61.3134 22.5417H61.3236ZM61.3236 29.5015C60.7972 29.5404 60.2712 29.4199 59.8142 29.1556C59.3571 28.8913 58.9902 28.4956 58.7612 28.02C58.5322 27.5443 58.4518 27.0107 58.5302 26.4887C58.6088 25.9666 58.8426 25.4803 59.2014 25.0931C59.5602 24.7057 60.0272 24.4354 60.5417 24.3173C61.0562 24.1991 61.5945 24.2387 62.0862 24.4307C62.578 24.6226 63.0005 24.9583 63.2989 25.3938C63.5973 25.8293 63.7577 26.3446 63.759 26.8724C63.7755 27.2067 63.7248 27.5409 63.61 27.8552C63.4952 28.1696 63.3187 28.4578 63.0907 28.7029C62.8628 28.9478 62.5881 29.1447 62.2829 29.2819C61.9777 29.4191 61.6481 29.4938 61.3134 29.5015H61.3236ZM50.023 23.8767V25.7108H54.425C54.356 26.5747 53.9969 27.39 53.406 28.0239C52.9656 28.4726 52.4362 28.824 51.8518 29.0556C51.2673 29.2873 50.6409 29.3941 50.0128 29.3691C48.7155 29.3691 47.4714 28.8537 46.5541 27.9364C45.6368 27.0192 45.1216 25.7751 45.1216 24.4779C45.1216 23.1806 45.6368 21.9366 46.5541 21.0193C47.4714 20.102 48.7155 19.5867 50.0128 19.5867C51.2537 19.5664 52.452 20.0392 53.3449 20.9012L54.639 19.607C54.0362 18.9967 53.3171 18.5135 52.5242 18.1862C51.7313 17.8589 50.8807 17.6941 50.023 17.7015C49.117 17.6662 48.2134 17.8142 47.366 18.1366C46.5187 18.4589 45.7451 18.949 45.0917 19.5775C44.4383 20.2059 43.9185 20.9598 43.5635 21.794C43.2084 22.6281 43.0254 23.5254 43.0254 24.432C43.0254 25.3386 43.2084 26.2358 43.5635 27.0699C43.9185 27.9042 44.4383 28.6581 45.0917 29.2865C45.7451 29.915 46.5187 30.4051 47.366 30.7274C48.2134 31.0498 49.117 31.1977 50.023 31.1625C50.8951 31.2019 51.7657 31.054 52.5759 30.7289C53.3863 30.4037 54.1176 29.9087 54.7205 29.2773C55.7881 28.1044 56.3581 26.5625 56.3101 24.9771C56.3135 24.5909 56.2793 24.2053 56.2083 23.8256L50.023 23.8767ZM96.1938 25.3033C95.9281 24.5214 95.4311 23.8387 94.7688 23.3456C94.1064 22.8525 93.3099 22.5721 92.4847 22.5417C91.9273 22.5407 91.3756 22.6539 90.8637 22.8745C90.3518 23.0951 89.8906 23.4183 89.5085 23.8241C89.1266 24.2301 88.8319 24.7101 88.6426 25.2343C88.4534 25.7587 88.3738 26.3161 88.4086 26.8724C88.3963 27.442 88.4988 28.0082 88.7102 28.5373C88.9214 29.0663 89.2373 29.5472 89.6387 29.9515C90.0401 30.3558 90.5188 30.6749 91.0463 30.89C91.5738 31.1051 92.1392 31.2116 92.7088 31.2033C93.4217 31.2071 94.1242 31.0341 94.7538 30.6998C95.3833 30.3655 95.9202 29.8802 96.3161 29.2875L94.8386 28.2685C94.618 28.6362 94.3059 28.9403 93.9325 29.151C93.5593 29.3618 93.1375 29.472 92.7088 29.471C92.2674 29.4878 91.8312 29.3714 91.4568 29.137C91.0825 28.9026 90.7873 28.5609 90.6098 28.1564L96.4078 25.7618L96.1938 25.3033ZM90.2836 26.7503C90.263 26.4351 90.3055 26.1189 90.4084 25.8204C90.5115 25.5217 90.6732 25.2467 90.8837 25.0114C91.0944 24.776 91.3499 24.5851 91.6354 24.4497C91.9208 24.3144 92.2303 24.2373 92.5458 24.2231C92.8745 24.2014 93.2023 24.2768 93.4886 24.4398C93.7748 24.6029 94.0068 24.8464 94.1558 25.1401L90.2836 26.7503ZM85.5759 30.9485H87.4814V18.211H85.5759V30.9485ZM82.4577 23.5098H82.3863C82.0992 23.1887 81.7474 22.932 81.354 22.7563C80.9606 22.5807 80.5346 22.4902 80.1039 22.4908C78.9902 22.5448 77.9401 23.0252 77.1712 23.8324C76.4021 24.6396 75.9732 25.7117 75.9732 26.8266C75.9732 27.9415 76.4021 29.0136 77.1712 29.8209C77.9401 30.6281 78.9902 31.1085 80.1039 31.1625C80.5357 31.1697 80.9638 31.0823 81.3582 30.9062C81.7525 30.7302 82.1034 30.4699 82.3863 30.1435H82.4475V30.765C82.4475 32.426 81.561 33.3126 80.1344 33.3126C79.6592 33.3014 79.1982 33.1492 78.8099 32.8752C78.4214 32.6012 78.1235 32.2178 77.9538 31.7739L76.2927 32.4668C76.6054 33.2274 77.1382 33.8772 77.8227 34.3328C78.5071 34.7886 79.3121 35.0295 80.1344 35.0245C82.366 35.0245 84.2104 33.71 84.2104 30.5104V22.7965H82.4577V23.5098ZM80.2771 29.5015C79.6198 29.4436 79.0079 29.1415 78.5624 28.655C78.1167 28.1683 77.8695 27.5323 77.8695 26.8724C77.8695 26.2126 78.1167 25.5767 78.5624 25.09C79.0079 24.6034 79.6198 24.3014 80.2771 24.2434C80.603 24.2602 80.9222 24.342 81.216 24.484C81.5098 24.626 81.7722 24.8254 81.9879 25.0704C82.2034 25.3154 82.3677 25.6011 82.4711 25.9105C82.5746 26.22 82.6151 26.5471 82.5902 26.8724C82.618 27.1993 82.5792 27.5284 82.4762 27.8397C82.3733 28.1511 82.2081 28.4384 81.991 28.6841C81.7738 28.9299 81.5091 29.129 81.2126 29.2694C80.9163 29.41 80.5946 29.4889 80.2669 29.5015H80.2771ZM105.12 18.211H100.565V30.9485H102.471V26.1184H105.13C105.674 26.1574 106.219 26.0842 106.732 25.9032C107.246 25.7221 107.717 25.4373 108.115 25.0663C108.514 24.6954 108.832 24.2462 109.049 23.7471C109.266 23.2478 109.378 22.7092 109.378 22.1647C109.378 21.6202 109.266 21.0816 109.049 20.5824C108.832 20.0831 108.514 19.6341 108.115 19.2632C107.717 18.8922 107.246 18.6073 106.732 18.4263C106.219 18.2453 105.674 18.172 105.13 18.211H105.12ZM105.12 24.325H102.461V19.9841H105.161C105.741 19.9841 106.297 20.2143 106.707 20.6243C107.116 21.0342 107.347 21.5902 107.347 22.1698C107.347 22.7495 107.116 23.3054 106.707 23.7154C106.297 24.1253 105.741 24.3556 105.161 24.3556L105.12 24.325ZM116.87 22.4908C116.176 22.4494 115.485 22.6115 114.882 22.9572C114.279 23.303 113.791 23.8173 113.476 24.4371L115.168 25.1401C115.334 24.8328 115.587 24.5805 115.894 24.4141C116.202 24.2476 116.552 24.1743 116.9 24.2027C117.142 24.1745 117.387 24.1946 117.621 24.2622C117.855 24.3296 118.073 24.443 118.263 24.5958C118.453 24.7485 118.61 24.9374 118.726 25.1516C118.841 25.3659 118.914 25.601 118.938 25.8433V25.9757C118.326 25.6518 117.644 25.4838 116.951 25.4867C115.127 25.4867 113.282 26.5057 113.282 28.3501C113.301 28.7433 113.397 29.129 113.567 29.4842C113.736 29.8395 113.976 30.1571 114.27 30.4184C114.565 30.6796 114.908 30.8792 115.281 31.0052C115.654 31.1313 116.048 31.1813 116.442 31.1523C116.922 31.1868 117.402 31.0914 117.832 30.8762C118.262 30.6611 118.626 30.334 118.886 29.9295H118.948V30.9485H120.783V26.0471C120.783 23.8155 119.091 22.5213 116.921 22.5213L116.87 22.4908ZM116.635 29.471C116.014 29.471 115.147 29.155 115.147 28.3908C115.147 27.3718 116.228 27.0356 117.186 27.0356C117.791 27.0207 118.389 27.1684 118.918 27.4636C118.854 28.0152 118.593 28.5253 118.183 28.8998C117.772 29.2743 117.241 29.488 116.686 29.5015L116.635 29.471ZM127.467 22.7965L125.286 28.3195H125.225L122.963 22.7965H120.925L124.319 30.5205L122.382 34.8106H124.37L129.587 22.7965H127.467ZM110.338 30.9485H112.243V18.211H110.338V30.9485Z" fill="white"/>
<path d="M12.0144 8.06169C11.6822 8.46022 11.5146 8.97043 11.5456 9.48829V32.0286C11.5146 32.5465 11.6822 33.0566 12.0144 33.4552L12.0857 33.5265L24.7112 20.9113V20.6157L12.0857 7.99036L12.0144 8.06169Z" fill="url(#paint0_linear_3_694)"/>
<path d="M28.8888 25.1198L24.7109 20.9113V20.6158L28.8888 16.3971L28.9806 16.4481L33.9839 19.2912C35.4105 20.0961 35.4105 21.4208 33.9839 22.236L29.001 25.0689L28.8888 25.1198Z" fill="url(#paint1_linear_3_694)"/>
<path d="M29.0116 25.0586L24.7114 20.7585L12.0146 33.4553C12.3054 33.7109 12.6764 33.8569 13.0634 33.868C13.4504 33.8792 13.8291 33.7548 14.1342 33.5164L29.0218 25.0586" fill="url(#paint2_linear_3_694)"/>
<path d="M29.0115 16.4582L14.1239 8.00054C13.819 7.7621 13.4401 7.63772 13.0531 7.64888C12.6661 7.66005 12.2952 7.80605 12.0044 8.06168L24.7113 20.7584L29.0115 16.4582Z" fill="url(#paint3_linear_3_694)"/>
<path opacity="0.2" d="M28.8893 24.9669L14.124 33.3736C13.8298 33.5936 13.4723 33.7125 13.105 33.7125C12.7377 33.7125 12.3802 33.5936 12.086 33.3736L12.0146 33.445L12.086 33.5163C12.3796 33.7379 12.7372 33.8577 13.105 33.8577C13.4727 33.8577 13.8305 33.7379 14.124 33.5163L29.0116 25.0587L28.8893 24.9669Z" fill="black"/>
<path opacity="0.12" d="M12.0144 33.3126C11.6822 32.914 11.5146 32.4039 11.5456 31.886V32.0388C11.5146 32.5567 11.6822 33.0669 12.0144 33.4655L12.0857 33.3941L12.0144 33.3126ZM33.984 22.0832L28.889 24.967L28.9807 25.0586L33.984 22.2259C34.2679 22.0925 34.5116 21.8866 34.6905 21.629C34.8695 21.3713 34.9772 21.0711 35.003 20.7585C34.9457 21.0425 34.8241 21.3096 34.6474 21.5392C34.4708 21.7689 34.2439 21.9549 33.984 22.0832Z" fill="black"/>
<path opacity="0.25" d="M14.1239 8.14323L33.9843 19.4337C34.244 19.562 34.471 19.7481 34.6476 19.9777C34.8243 20.2074 34.9459 20.4744 35.0033 20.7585C34.9775 20.4459 34.8696 20.1456 34.6908 19.8879C34.5119 19.6304 34.2681 19.4244 33.9843 19.291L14.1239 8.00056C12.6973 7.19555 11.5356 7.8681 11.5356 9.4985V9.65134C11.5662 8.01075 12.7075 7.33821 14.1239 8.14323Z" fill="white"/>
<path d="M44.2864 14.9195H43.5322V12.8816H44.1743C44.467 12.5714 44.6881 12.2007 44.8218 11.7957C44.9557 11.3907 44.999 10.9614 44.9487 10.5378V7.51141H49.0247V12.8714H49.7074V14.9094H48.9534V13.6254H44.2864V14.9195ZM45.7028 10.5684C45.7502 11.3904 45.5478 12.2075 45.122 12.9121H48.179V8.26547H45.7028V10.5684ZM55.8011 12.8305C55.2053 13.4229 54.3993 13.7555 53.5592 13.7555C52.7191 13.7555 51.9131 13.4229 51.3175 12.8305C50.7384 12.2177 50.4158 11.4065 50.4158 10.5633C50.4158 9.72016 50.7384 8.90895 51.3175 8.29604C51.611 8.00027 51.9603 7.76552 52.3451 7.60533C52.7299 7.44514 53.1425 7.36267 53.5592 7.36267C53.976 7.36267 54.3887 7.44514 54.7734 7.60533C55.1581 7.76552 55.5074 8.00027 55.8011 8.29604C56.3824 8.90777 56.7065 9.71943 56.7065 10.5633C56.7065 11.4072 56.3824 12.2188 55.8011 12.8305ZM51.8983 12.3211C52.3394 12.7604 52.9366 13.0071 53.5592 13.0071C54.1818 13.0071 54.7791 12.7604 55.2203 12.3211C55.6555 11.8412 55.8968 11.2164 55.8968 10.5684C55.8968 9.92044 55.6555 9.29567 55.2203 8.81573C54.7791 8.37642 54.1818 8.12977 53.5592 8.12977C52.9366 8.12977 52.3394 8.37642 51.8983 8.81573C51.4629 9.29567 51.2218 9.92044 51.2218 10.5684C51.2218 11.2164 51.4629 11.8412 51.8983 12.3211ZM60.6616 13.7579C60.2411 13.7662 59.823 13.6894 59.4329 13.5319C59.0426 13.3745 58.6883 13.1397 58.3913 12.8416C58.0943 12.5437 57.8606 12.1886 57.7044 11.798C57.5482 11.4073 57.4726 10.989 57.4824 10.5684C57.4726 10.1478 57.5482 9.72952 57.7044 9.33883C57.8606 8.94815 58.0943 8.59313 58.3913 8.29514C58.6883 7.99715 59.0426 7.76235 59.4329 7.60489C59.823 7.44745 60.2411 7.37058 60.6616 7.37894C61.0881 7.36839 61.5112 7.45458 61.8995 7.63108C62.2878 7.80757 62.6311 8.06975 62.9035 8.39794L62.3532 8.92783C62.152 8.67231 61.8925 8.46867 61.5964 8.33395C61.3003 8.19921 60.9763 8.1373 60.6514 8.15338C60.3387 8.14525 60.0276 8.20066 59.7368 8.31627C59.4461 8.43187 59.1818 8.60525 58.96 8.82593C58.5181 9.30873 58.2731 9.93945 58.2731 10.5939C58.2731 11.2483 58.5181 11.879 58.96 12.3618C59.1818 12.5826 59.4461 12.7559 59.7368 12.8715C60.0276 12.9871 60.3387 13.0425 60.6514 13.0344C61.0101 13.0312 61.3636 12.9481 61.6862 12.7913C62.0088 12.6344 62.2923 12.4076 62.5162 12.1275L63.0665 12.6777C62.7892 13.0142 62.4414 13.2855 62.0475 13.4726C61.6126 13.6696 61.1391 13.767 60.6616 13.7579ZM66.2661 13.6254H65.4816V8.26547H63.7696V7.51141H67.9679V8.26547H66.2661V13.6254ZM73.3687 7.51141L71.0555 12.6675C70.9629 12.9726 70.7778 13.2413 70.526 13.4366C70.2741 13.6319 69.9677 13.7442 69.6493 13.7579C69.4386 13.7552 69.2307 13.7101 69.0379 13.6254L69.2417 12.9019C69.3655 12.974 69.5059 13.0127 69.6493 13.014C69.799 13.0253 69.9486 12.9896 70.0773 12.9121C70.2 12.8082 70.2947 12.675 70.3524 12.5249L70.5765 12.0358L68.5385 7.5216H69.4659L70.974 11.027L72.4413 7.51141H73.3687ZM74.2552 13.6254V7.51141H78.6777V13.6254H77.893V8.26547H75.0397V13.6254H74.2552ZM80.0736 13.6254V7.51141H80.8583V10.1302H83.9153V7.51141H84.6999V13.6254H83.9153V10.8639H80.8583V13.6254H80.0736ZM91.1094 12.8305C90.5137 13.4229 89.7077 13.7555 88.8676 13.7555C88.0275 13.7555 87.2215 13.4229 86.6258 12.8305C86.0468 12.2177 85.7242 11.4065 85.7242 10.5633C85.7242 9.72016 86.0468 8.90895 86.6258 8.29604C86.9195 8.00027 87.2687 7.76552 87.6534 7.60533C88.0382 7.44514 88.4508 7.36267 88.8676 7.36267C89.2843 7.36267 89.6971 7.44514 90.0818 7.60533C90.4666 7.76552 90.8158 8.00027 91.1094 8.29604C91.6907 8.90777 92.0149 9.71943 92.0149 10.5633C92.0149 11.4072 91.6907 12.2188 91.1094 12.8305ZM87.2067 12.3211C87.6478 12.7604 88.245 13.0071 88.8676 13.0071C89.4902 13.0071 90.0874 12.7604 90.5286 12.3211C90.964 11.8412 91.2051 11.2164 91.2051 10.5684C91.2051 9.92044 90.964 9.29567 90.5286 8.81573C90.0874 8.37642 89.4902 8.12977 88.8676 8.12977C88.245 8.12977 87.6478 8.37642 87.2067 8.81573C86.7713 9.29567 86.5302 9.92044 86.5302 10.5684C86.5302 11.2164 86.7713 11.8412 87.2067 12.3211ZM95.2159 13.6254V7.51141H97.4273C97.8864 7.50274 98.3313 7.67051 98.6704 7.98015C98.8407 8.12793 98.9764 8.3113 99.0679 8.51732C99.1595 8.72334 99.2047 8.94697 99.2003 9.17238C99.205 9.44401 99.1268 9.71063 98.9762 9.93663C98.8264 10.1562 98.6182 10.3292 98.3749 10.4359C98.6705 10.5338 98.9296 10.7184 99.1188 10.9659C99.3147 11.2154 99.4191 11.5248 99.4143 11.8422C99.4195 12.0771 99.3729 12.3102 99.2778 12.5251C99.1827 12.7399 99.0414 12.9312 98.864 13.0853C98.5092 13.4126 98.0423 13.5914 97.5597 13.5847L95.2159 13.6254ZM96.0006 10.1302H97.4273C97.5604 10.1358 97.6932 10.1122 97.8165 10.0612C97.9397 10.0102 98.0503 9.93289 98.1406 9.83474C98.2307 9.75292 98.3036 9.65379 98.3546 9.54322C98.4057 9.43267 98.434 9.31295 98.4378 9.19122C98.4416 9.0695 98.4208 8.94826 98.3768 8.83472C98.3327 8.72119 98.2662 8.6177 98.1813 8.53041C98.0961 8.43409 97.9908 8.35769 97.8728 8.30662C97.7548 8.25555 97.6271 8.23106 97.4985 8.23491H96.0414L96.0006 10.1302ZM96.0006 12.8714H97.5801C97.7181 12.876 97.8555 12.8501 97.9823 12.7955C98.1091 12.7409 98.2222 12.659 98.3138 12.5555C98.4935 12.3691 98.5954 12.1214 98.5991 11.8626C98.5991 11.5923 98.4917 11.3331 98.3006 11.142C98.1096 10.951 97.8504 10.8436 97.5801 10.8436H96.0312L96.0006 12.8714Z" fill="white" stroke="white" stroke-width="1.15702" stroke-miterlimit="10"/>
</g>
</g>
<defs>
<linearGradient id="paint0_linear_3_694" x1="23.5902" y1="9.25392" x2="6.4914" y2="26.3527" gradientUnits="userSpaceOnUse">
<stop stop-color="#00A0FF"/>
<stop offset="0.01" stop-color="#00A1FF"/>
<stop offset="0.26" stop-color="#00BEFF"/>
<stop offset="0.51" stop-color="#00D2FF"/>
<stop offset="0.76" stop-color="#00DFFF"/>
<stop offset="1" stop-color="#00E3FF"/>
</linearGradient>
<linearGradient id="paint1_linear_3_694" x1="35.8487" y1="20.7585" x2="11.199" y2="20.7585" gradientUnits="userSpaceOnUse">
<stop stop-color="#FFE000"/>
<stop offset="0.41" stop-color="#FFBD00"/>
<stop offset="0.78" stop-color="#FFA500"/>
<stop offset="1" stop-color="#FF9C00"/>
</linearGradient>
<linearGradient id="paint2_linear_3_694" x1="26.6781" y1="23.1022" x2="3.48563" y2="46.2845" gradientUnits="userSpaceOnUse">
<stop stop-color="#FF3A44"/>
<stop offset="1" stop-color="#C31162"/>
</linearGradient>
<linearGradient id="paint3_linear_3_694" x1="8.81495" y1="0.56183" x2="19.168" y2="10.9149" gradientUnits="userSpaceOnUse">
<stop stop-color="#32A071"/>
<stop offset="0.07" stop-color="#2DA771"/>
<stop offset="0.48" stop-color="#15CF74"/>
<stop offset="0.8" stop-color="#06E775"/>
<stop offset="1" stop-color="#00F076"/>
</linearGradient>
<clipPath id="clip0_3_694">
<rect width="140" height="40" fill="white" transform="translate(0 0.0899658)"/>
</clipPath>
<clipPath id="clip1_3_694">
<rect width="140" height="41.6529" fill="white" transform="translate(0 -0.73645)"/>
</clipPath>
</defs>
</svg>
