<svg width="32" height="33" viewBox="0 0 32 33" fill="none" xmlns="http://www.w3.org/2000/svg">
<path fill-rule="evenodd" clip-rule="evenodd" d="M0 16.34C0 7.50341 7.16345 0.339966 16 0.339966C24.8365 0.339966 32 7.50341 32 16.34C32 25.1765 24.8365 32.34 16 32.34C7.16345 32.34 0 25.1765 0 16.34Z" fill="url(#paint0_radial_3_738)"/>
<path fill-rule="evenodd" clip-rule="evenodd" d="M16.0003 7.80676C13.6827 7.80676 13.3918 7.8169 12.4816 7.85833C11.5731 7.89993 10.953 8.04375 10.4105 8.25478C9.84921 8.47273 9.37312 8.76429 8.89879 9.23878C8.42413 9.7131 8.13257 10.1892 7.91391 10.7503C7.70234 11.293 7.55834 11.9133 7.51745 12.8214C7.47674 13.7316 7.46606 14.0226 7.46606 16.3403C7.46606 18.6578 7.47638 18.9477 7.51763 19.8579C7.5594 20.7663 7.70323 21.3865 7.91408 21.9291C8.13222 22.4902 8.42377 22.9664 8.89827 23.4408C9.37241 23.9154 9.84849 24.2076 10.4094 24.4256C10.9523 24.6367 11.5726 24.7804 12.4809 24.822C13.3911 24.8635 13.6818 24.8736 15.9991 24.8736C18.3168 24.8736 18.6068 24.8635 19.5171 24.822C20.4254 24.7804 21.0462 24.6367 21.5892 24.4256C22.1504 24.2076 22.6257 23.9154 23.0998 23.4408C23.5745 22.9664 23.866 22.4902 24.0848 21.9292C24.2945 21.3865 24.4385 20.7662 24.4811 19.8581C24.522 18.9478 24.5328 18.6578 24.5328 16.3403C24.5328 14.0226 24.522 13.7318 24.4811 12.8216C24.4385 11.9131 24.2945 11.293 24.0848 10.7504C23.866 10.1892 23.5745 9.7131 23.0998 9.23878C22.6251 8.76412 22.1505 8.47255 21.5886 8.25478C21.0446 8.04375 20.4243 7.89993 19.5158 7.85833C18.6055 7.8169 18.3158 7.80676 15.9975 7.80676H16.0003ZM15.2355 9.34489C15.4627 9.34452 15.7162 9.34489 16.001 9.34489C18.2794 9.34489 18.5495 9.35306 19.4491 9.39395C20.2811 9.432 20.7328 9.57102 21.0336 9.68782C21.4318 9.84249 21.7158 10.0274 22.0142 10.326C22.3129 10.6247 22.4977 10.9092 22.6528 11.3074C22.7696 11.6078 22.9088 12.0594 22.9466 12.8914C22.9876 13.791 22.9965 14.0612 22.9965 16.3385C22.9965 18.6159 22.9876 18.8862 22.9466 19.7856C22.9086 20.6176 22.7696 21.0693 22.6528 21.3698C22.4982 21.7679 22.3129 22.0515 22.0142 22.35C21.7156 22.6486 21.432 22.8335 21.0336 22.9883C20.7331 23.1055 20.2811 23.2443 19.4491 23.2822C18.5497 23.3231 18.2794 23.3321 16.001 23.3321C13.7224 23.3321 13.4523 23.3231 12.5528 23.2822C11.7208 23.2438 11.2692 23.1049 10.9682 22.9881C10.57 22.8334 10.2856 22.6485 9.98689 22.3499C9.68822 22.0511 9.50333 21.7675 9.3483 21.3691C9.2315 21.0686 9.0923 20.6171 9.05444 19.7851C9.01356 18.8854 9.00537 18.6152 9.00537 16.3365C9.00537 14.0576 9.01356 13.7888 9.05444 12.8893C9.09248 12.0573 9.2315 11.6057 9.3483 11.3049C9.50298 10.9067 9.68822 10.6222 9.98689 10.3236C10.2856 10.0249 10.57 9.84 10.9682 9.68497C11.269 9.56765 11.7208 9.42897 12.5528 9.39075C13.34 9.3552 13.6451 9.34452 15.2355 9.34275V9.34489ZM20.5555 10.7617C19.9901 10.7617 19.5315 11.2199 19.5315 11.7854C19.5315 12.3507 19.9901 12.8094 20.5555 12.8094C21.1207 12.8094 21.5795 12.3507 21.5795 11.7854C21.5795 11.22 21.1207 10.7617 20.5555 10.7617ZM16.0009 11.958C13.5808 11.958 11.6186 13.9201 11.6186 16.3403C11.6186 18.7603 13.5808 20.7216 16.0009 20.7216C18.4211 20.7216 20.3825 18.7603 20.3825 16.3403C20.3825 13.9201 18.4211 11.958 16.0009 11.958ZM16.0009 13.4958C17.5718 13.4958 18.8454 14.7692 18.8454 16.3403C18.8454 17.911 17.5718 19.1846 16.0009 19.1846C14.4298 19.1846 13.1564 17.911 13.1564 16.3403C13.1564 14.7692 14.4298 13.4958 16.0009 13.4958Z" fill="white"/>
<defs>
<radialGradient id="paint0_radial_3_738" cx="0" cy="0" r="1" gradientUnits="userSpaceOnUse" gradientTransform="translate(4.77778 32.4511) scale(40.888)">
<stop stop-color="#FFB140"/>
<stop offset="0.2559" stop-color="#FF5445"/>
<stop offset="0.599" stop-color="#FC2B82"/>
<stop offset="1" stop-color="#8E40B7"/>
</radialGradient>
</defs>
</svg>
