<svg width="38" height="25" viewBox="0 0 38 25" fill="none" xmlns="http://www.w3.org/2000/svg">
<g clip-path="url(#clip0_3_724)">
<g clip-path="url(#clip1_3_724)">
<g clip-path="url(#clip2_3_724)">
<path d="M0 4.08997C0 1.88083 1.79086 0.0899658 4 0.0899658H33.8947C36.1039 0.0899658 37.8947 1.88083 37.8947 4.08997V20.09C37.8947 22.2991 36.1039 24.09 33.8947 24.09H4C1.79086 24.09 0 22.2991 0 20.09V4.08997Z" fill="white"/>
<path d="M8.34666 9.02873C8.23239 8.84375 8.08337 8.68265 7.90785 8.55433C7.73057 8.43312 7.53633 8.3388 7.33145 8.27443C7.10884 8.2016 6.879 8.15309 6.64595 8.12974C6.3732 8.10315 6.09927 8.09049 5.82524 8.09179H3.45325C3.39826 8.0866 3.3428 8.09249 3.29013 8.10912C3.23747 8.12576 3.18868 8.15279 3.14665 8.18862C3.10463 8.22445 3.07022 8.26836 3.04547 8.31773C3.02072 8.3671 3.00613 8.42094 3.00257 8.47605C3.00257 8.47605 3.00257 8.49028 3.00257 8.4974V12.3496C3.33143 13.0552 3.87754 13.6371 4.56097 14.0099V13.2367C4.55576 13.177 4.56237 13.1169 4.58043 13.0598C4.59848 13.0027 4.62762 12.9497 4.66618 12.9039C4.70473 12.8581 4.75195 12.8203 4.80513 12.7927C4.8583 12.7652 4.91639 12.7484 4.97606 12.7433H5.68766C6.6586 12.7433 7.39945 12.5401 7.91022 12.1337C8.42099 11.7273 8.68032 11.1248 8.68823 10.3262C8.68906 10.0961 8.66198 9.86669 8.60758 9.64307C8.55336 9.42588 8.46531 9.21856 8.34666 9.02873ZM6.95668 11.0094C6.87395 11.1517 6.75099 11.2664 6.60325 11.3391C6.44317 11.4155 6.27021 11.4614 6.09327 11.4743C5.89892 11.4985 5.70324 11.5104 5.50739 11.5099H4.82426C4.66059 11.5099 4.55859 11.377 4.55859 11.1825V9.59326C4.55623 9.55839 4.56161 9.52343 4.57434 9.49088C4.58706 9.45833 4.60682 9.42899 4.6322 9.40497C4.65759 9.38095 4.68797 9.36283 4.72117 9.35191C4.75437 9.341 4.78957 9.33755 4.82426 9.34183H5.50739C5.72878 9.34183 5.93751 9.34815 6.1336 9.3608C6.30835 9.36919 6.47987 9.41106 6.63883 9.48415C6.78508 9.54926 6.90709 9.65882 6.98751 9.79725C7.07832 9.98286 7.11998 10.1887 7.10848 10.395C7.1131 10.6089 7.0607 10.8201 6.95668 11.007V11.0094ZM4.56334 14.2424C3.97839 14.0314 3.44598 13.6964 3.00257 13.2604V15.1224C2.9976 15.1579 2.99986 15.194 3.0092 15.2286C3.01854 15.2631 3.03478 15.2955 3.05694 15.3236C3.0791 15.3517 3.10671 15.3751 3.13813 15.3923C3.16955 15.4095 3.20412 15.4202 3.23977 15.4237H4.31191C4.59655 15.4237 4.56334 15.12 4.56334 15.12V14.2424ZM19.2981 10.1199H18.3731C18.2848 10.1141 18.1973 10.1398 18.1261 10.1923C18.0549 10.2448 18.0046 10.3208 17.9841 10.4069L16.9096 13.3671C16.9096 13.3671 15.9608 10.6702 15.8896 10.4614C15.8696 10.3651 15.8173 10.2785 15.7414 10.216C15.6655 10.1534 15.5705 10.1187 15.4721 10.1175H14.6206C14.317 10.1175 14.317 10.3547 14.3573 10.4472C14.3976 10.5397 15.5623 13.7324 16.0177 14.954C16.0894 15.1044 16.1397 15.2641 16.1671 15.4284C16.1376 15.5906 16.0763 15.7454 15.9868 15.8838C15.9522 15.9425 15.9125 15.9981 15.8682 16.0499C16.7459 15.7889 17.7658 14.8378 18.2782 13.8107C18.7953 12.3875 19.476 10.4899 19.5069 10.3927C19.5401 10.2432 19.5401 10.1199 19.2981 10.1199ZM15.1756 16.3392C15.0963 16.3371 15.0171 16.3308 14.9384 16.3203C14.8412 16.306 14.6562 16.3203 14.6562 16.4863V17.1979C14.6562 17.4707 14.789 17.4897 14.8578 17.5086C15.0775 17.5568 15.3018 17.5807 15.5267 17.5798C15.7924 17.5868 16.0562 17.5324 16.2976 17.4209C16.5184 17.3093 16.7144 17.1544 16.874 16.9654C17.0549 16.7586 17.208 16.5289 17.3294 16.2823C17.4606 16.0198 17.5856 15.7296 17.7042 15.4118L17.8417 15.0346C17.5666 15.3074 16.3521 16.4531 15.1756 16.3392ZM13.7762 10.9714C13.7258 10.8516 13.6569 10.7403 13.5722 10.6417C13.4864 10.5504 13.3892 10.4706 13.2828 10.4045C13.1679 10.3263 13.0455 10.2595 12.9175 10.2053C12.7872 10.1548 12.6531 10.1143 12.5166 10.0843C12.3604 10.0497 12.2018 10.0267 12.0422 10.0155C11.8714 9.99808 11.6801 9.98938 11.4682 9.98938C10.0545 9.98938 9.2496 10.4354 9.05352 11.3272C9.04515 11.3605 9.04409 11.3951 9.05041 11.4288C9.05673 11.4625 9.07027 11.4944 9.09011 11.5224C9.10995 11.5503 9.13561 11.5737 9.16533 11.5908C9.19504 11.6078 9.22811 11.6183 9.26225 11.6214H10.1328C10.37 11.6214 10.37 11.5478 10.4601 11.3438C10.4996 11.2328 10.5705 11.1355 10.6641 11.0639C10.8865 10.9204 11.1496 10.8529 11.4136 10.8718C11.6599 10.8466 11.9073 10.9078 12.1134 11.045C12.2706 11.1917 12.3635 11.3946 12.3719 11.6095C12.3719 11.9036 12.2818 12.0981 11.9165 12.0981C11.0507 12.0673 10.1209 12.1645 9.5967 12.4658C9.33865 12.6233 9.12683 12.8462 8.9827 13.112C8.83857 13.3778 8.76726 13.6769 8.77599 13.9791C8.77003 14.2145 8.81789 14.4482 8.91594 14.6622C9.0083 14.8483 9.14221 15.0106 9.30732 15.1366C9.48064 15.278 9.68072 15.3829 9.89557 15.445C10.1383 15.5107 10.3889 15.5426 10.6404 15.5399C10.9787 15.5451 11.3156 15.4971 11.639 15.3976C11.9248 15.2805 12.1949 15.1283 12.4431 14.9445V15.1106C12.4431 15.2742 12.4929 15.4213 12.6803 15.4213H13.6884C13.8924 15.4213 13.9398 15.2766 13.9398 15.0963V11.9914C13.941 11.7977 13.9276 11.6042 13.8995 11.4126C13.8771 11.2609 13.8357 11.1127 13.7762 10.9714ZM12.398 14.0218C12.398 14.0218 12.1371 14.5674 11.212 14.5674C10.9902 14.5776 10.7709 14.5169 10.5858 14.3942C10.5044 14.331 10.44 14.2484 10.3986 14.1539C10.3572 14.0595 10.34 13.9562 10.3486 13.8534C10.3384 13.7154 10.3704 13.5775 10.4403 13.4581C10.5102 13.3386 10.6147 13.2432 10.74 13.1845C11.1142 13.0407 11.5135 12.9738 11.9141 12.9876C11.9754 12.9784 12.038 12.9825 12.0976 12.9997C12.1571 13.017 12.2123 13.0469 12.2591 13.0875C12.306 13.1281 12.3436 13.1783 12.3692 13.2348C12.3948 13.2912 12.4079 13.3526 12.4075 13.4146L12.398 14.0218Z" fill="#333333"/>
<path d="M35.4515 12.0246C35.5684 12.2125 35.6303 12.4295 35.6303 12.6508C35.6303 12.8721 35.5684 13.089 35.4515 13.277C35.2143 13.6375 33.9216 15.018 33.4946 15.4616C33.1246 15.8459 32.6241 16.2349 32.1284 16.2349H21.86C20.47 16.2349 20.387 15.7605 20.387 14.7026V10.3879C20.387 9.30387 20.7072 8.9884 21.6584 8.9884H32.1521C32.6431 8.9884 33.0819 9.23983 33.5753 9.74743C34.007 10.1815 35.2807 11.7684 35.4515 12.0246Z" fill="#33CCCC"/>
<path d="M22.7186 10.6559V10.6298C22.7186 10.4899 22.7186 10.3546 22.4814 10.3546H21.6204C21.4187 10.3546 21.4092 10.4638 21.4092 10.6345V11.7731C21.7489 11.3003 22.1982 10.9169 22.7186 10.6559Z" fill="white"/>
<path d="M28.4848 14.7737V14.712V11.9652C28.4848 10.8156 27.9772 10.2408 26.962 10.2408C26.6794 10.2441 26.4034 10.3263 26.165 10.478C25.9023 10.6418 25.6676 10.8469 25.47 11.0852C25.3806 10.8276 25.2067 10.6078 24.9766 10.4614C24.715 10.3172 24.4188 10.2474 24.1204 10.2598C23.6813 10.2614 23.2552 10.4082 22.9083 10.6772C22.8324 10.7531 21.4068 11.8632 21.4068 13.0208V14.7784C21.4068 14.833 21.3783 15.0464 21.6179 15.0464H22.5121C22.7897 15.0464 22.7636 14.8638 22.7636 14.7879V11.9415C22.913 11.7399 23.219 11.2584 23.7242 11.2584C23.805 11.251 23.8864 11.2654 23.9598 11.3C24.0332 11.3346 24.096 11.3882 24.1417 11.4552C24.2431 11.6578 24.2874 11.8841 24.2698 12.1099V14.3277V14.7831C24.2698 14.8377 24.2413 15.0512 24.4809 15.0512H25.3657C25.6432 15.0512 25.6171 14.8685 25.6171 14.7926V14.731V11.932C25.7784 11.7304 26.0915 11.2489 26.5777 11.2489C26.6595 11.2422 26.7416 11.2568 26.816 11.2913C26.8904 11.3258 26.9546 11.379 27.0023 11.4458C27.1054 11.6478 27.1505 11.8743 27.1328 12.1004V14.3182V14.7737C27.1328 14.8282 27.1043 15.0417 27.3439 15.0417H28.2381C28.518 15.0275 28.4848 14.8472 28.4848 14.7737Z" fill="white"/>
<path d="M33.4163 13.6564C33.2643 14.065 32.9859 14.4144 32.6215 14.6538C32.2572 14.8931 31.8259 15.0099 31.3906 14.9871C30.0243 14.9871 29.1135 14.0573 29.1135 12.6626C29.1135 11.2678 30.0623 10.2906 31.3432 10.2906C32.624 10.2906 33.4779 11.1777 33.5325 12.608C33.5325 12.7907 33.4874 12.952 33.2573 12.952H30.3588C30.3778 13.7181 30.7454 14.1381 31.4001 14.1381C31.5739 14.1424 31.7453 14.0968 31.8941 14.0069C32.0429 13.9169 32.1628 13.7863 32.2398 13.6303C32.2701 13.5862 32.3108 13.5503 32.3585 13.5259C32.4061 13.5015 32.459 13.4893 32.5125 13.4904H33.2597C33.2821 13.4893 33.3045 13.4933 33.3252 13.5021C33.3458 13.5109 33.3643 13.5243 33.3791 13.541C33.3939 13.558 33.4047 13.5779 33.4107 13.5995C33.4168 13.6211 33.4178 13.6438 33.4139 13.6659L33.4163 13.6564ZM31.3479 11.1753C30.8047 11.1753 30.4371 11.5525 30.3564 12.1739H32.3014C32.2516 11.6308 31.9575 11.1753 31.3479 11.1753Z" fill="white"/>
</g>
</g>
</g>
<defs>
<clipPath id="clip0_3_724">
<rect y="0.0899658" width="38" height="24" rx="4" fill="white"/>
</clipPath>
<clipPath id="clip1_3_724">
<rect width="38" height="24" fill="white" transform="translate(0 0.0899658)"/>
</clipPath>
<clipPath id="clip2_3_724">
<rect width="38" height="24" fill="white" transform="translate(0 0.0899658)"/>
</clipPath>
</defs>
</svg>
